# xmcd
# 
# Track frame offsets:
#     150
#     19286
#     37702
#     56021
#     72866
#     87085
#     106980
#     124227
#     144594
#     170873
#     188564
#     213489
#     232928
#     255050
#     277878
#     299392
#     317376
# 
# Disc length: 4477
# 
# Revision: 6
# Processed by: cddbd v1.5.2PL0 Copyright (c) Steve Scherf et al.
# Submitted via: fre:ac v1.0.27
# 
DISCID=e6117b11
DTITLE=Various Artist - Motown: The Complete No. 1's
DYEAR=2008
DGENRE=R&B
TTITLE0=Johnny Gill - Rub You The Right Way
TTITLE1=Johnny Gill - My, My, My
TTITLE2=The Boys - Crazy
TTITLE3=Johnny Gill - Wrap My Body Tight
TTITLE4=Boyz II Men - It's So Hard To Say Goodbye To Yesterday
TTITLE5=Shanice - I Love Your Smile
TTITLE6=Boyz II Men - Uhh Ahh
TTITLE7=Lionel Richie - Do It To Me
TTITLE8=Boyz II Men - End Of The Road
TTITLE9=Boyz II Men - I'll Make Love To You
TTITLE10=Boyz II Men - On Bended Knee
TTITLE11=Diana Ross - Take Me Higher
TTITLE12=Boyz II Men - 4 Seasons Of Loneliness
TTITLE13=Boyz II Men - A Song For Mama
TTITLE14=The Temptations - Stay
TTITLE15=Profyle - Liar
TTITLE16=Erykah Badu - Bag Lady
EXTD=
EXTT0=
EXTT1=
EXTT2=
EXTT3=
EXTT4=
EXTT5=
EXTT6=
EXTT7=
EXTT8=
EXTT9=
EXTT10=
EXTT11=
EXTT12=
EXTT13=
EXTT14=
EXTT15=
EXTT16=
PLAYORDER=
